<svg width="128" height="99" viewBox="0 0 128 99" fill="none" xmlns="http://www.w3.org/2000/svg">
<path d="M28.1282 43.722C28.6162 43.7193 28.8922 44.2808 28.5918 44.6656L8.85048 69.9517C8.5591 70.3249 7.96803 70.2146 7.83092 69.7614L0.22658 44.6254C0.113496 44.2516 0.391974 43.8743 0.782493 43.8722L28.1282 43.722Z" fill="#2e96f9"/>
<path d="M30.3992 53.6478C30.7885 53.1491 31.5822 53.5388 31.4256 54.1518L25.3738 77.8412C25.3077 78.0999 25.0747 78.2808 24.8078 78.2808H12.3669C11.8803 78.2808 11.6071 77.7208 11.9065 77.3372L30.3992 53.6478Z" fill="#2e96f9"/>
<path d="M34.9826 36.1164C35.0435 36.2615 35.0211 36.4281 34.9241 36.5519C34.8423 36.6563 34.7174 36.7176 34.5848 36.7183L2.78026 36.8935C2.29621 36.8962 2.01914 36.3427 2.31129 35.9568L22.6783 9.05142C22.95 8.69245 23.5086 8.76286 23.6827 9.17803L34.9826 36.1164Z" fill="#2e96f9"/>
<path d="M53.2592 79.6943C53.2607 79.6977 53.2582 79.7015 53.2544 79.7015C53.2516 79.7015 53.2492 79.7038 53.2492 79.7067V98.2822C53.2492 98.7837 52.659 99.0521 52.2811 98.7224L32.0485 81.0744C31.8823 80.9295 31.812 80.7033 31.8666 80.4896L39.6599 49.988C39.7986 49.4452 40.5478 49.3901 40.7645 49.9067L53.2592 79.6943Z" fill="#2e96f9"/>
<path d="M62.0353 0.195447C62.5547 0.124195 62.8977 0.720364 62.5751 1.13365L40.5963 29.2866C40.3216 29.6384 39.7698 29.5647 39.5972 29.153L29.6279 5.38244C29.4794 5.02846 29.7069 4.62995 30.0872 4.57778L62.0353 0.195447Z" fill="#2e96f9"/>
<path d="M82.4733 49.0518C82.9686 49.1124 83.1649 49.726 82.7966 50.0628L58.5241 72.2566C58.2259 72.5292 57.7476 72.4241 57.5913 72.0514L46.4671 45.531C46.2936 45.1175 46.6315 44.6708 47.0766 44.7252L82.4733 49.0518Z" fill="#2e96f9"/>
<path d="M85.2328 41.4627C85.4374 41.8791 85.0982 42.3564 84.6376 42.3001L44.2373 37.3614C43.7864 37.3062 43.5682 36.7801 43.8478 36.422L67.1536 6.5702C67.4188 6.23041 67.9482 6.28517 68.1383 6.67207L85.2328 41.4627Z" fill="#2e96f9"/>
<path d="M103.313 8.56673C103.656 8.65773 103.84 9.03204 103.701 9.35936L91.9294 37.1344C91.7342 37.5951 91.0879 37.6131 90.8673 37.1641L73.4157 1.6508C73.1947 1.20117 73.6052 0.700241 74.0895 0.828482L103.313 8.56673Z" fill="#2e96f9"/>
<path d="M103.61 78.8584C103.801 79.247 103.518 79.7009 103.085 79.7002L62.2736 79.6344C61.7409 79.6336 61.4872 78.9786 61.8803 78.6192L90.0177 52.8896C90.3051 52.6268 90.7644 52.7135 90.9361 53.0631L103.61 78.8584Z" fill="#2e96f9"/>
<path d="M126.833 47.1293C127.311 47.088 127.632 47.6086 127.381 48.0173L110.601 75.3027C110.36 75.6945 109.782 75.6671 109.579 75.2543L97.4032 50.4693C97.2221 50.1007 97.468 49.6651 97.8773 49.6298L126.833 47.1293Z" fill="#2e96f9"/>
<path d="M127.454 39.2104C127.705 39.5796 127.465 40.0824 127.021 40.1207L98.084 42.6167C97.6455 42.6545 97.3243 42.2121 97.496 41.8068L109.258 14.0416C109.439 13.6157 110.019 13.5585 110.279 13.9412L127.454 39.2104Z" fill="#2e96f9"/>
</svg>
